<svg xmlns="http://www.w3.org/2000/svg" viewBox="0 0 256 256" shape-rendering="crispEdges">
<rect x="112" y="16" width="32" height="16" fill="#ff8c00"/>
<rect x="96" y="32" width="16" height="16" fill="#ff8c00"/>
<rect x="112" y="32" width="32" height="16" fill="#ffe066"/>
<rect x="144" y="32" width="16" height="16" fill="#ff8c00"/>
<rect x="112" y="48" width="32" height="16" fill="#fff4e0"/>
<rect x="112" y="64" width="32" height="16" fill="#e94560"/>
<rect x="112" y="80" width="32" height="16" fill="#fff4e0"/>
<rect x="112" y="96" width="32" height="16" fill="#fff4e0"/>
<rect x="48" y="112" width="16" height="16" fill="#4a2c14"/>
<rect x="64" y="112" width="16" height="16" fill="#ff8fb3"/>
<rect x="80" y="112" width="16" height="16" fill="#ffd1e3"/>
<rect x="96" y="112" width="64" height="16" fill="#ff8fb3"/>
<rect x="160" y="112" width="16" height="16" fill="#ffd23f"/>
<rect x="176" y="112" width="16" height="16" fill="#ff8fb3"/>
<rect x="192" y="112" width="16" height="16" fill="#4a2c14"/>
<rect x="48" y="128" width="16" height="16" fill="#4a2c14"/>
<rect x="64" y="128" width="32" height="16" fill="#ff8fb3"/>
<rect x="96" y="128" width="16" height="16" fill="#ff4757"/>
<rect x="112" y="128" width="32" height="16" fill="#ff8fb3"/>
<rect x="144" y="128" width="16" height="16" fill="#3399ff"/>
<rect x="160" y="128" width="32" height="16" fill="#ff8fb3"/>
<rect x="192" y="128" width="16" height="16" fill="#4a2c14"/>
<rect x="32" y="144" width="16" height="16" fill="#4a2c14"/>
<rect x="48" y="144" width="16" height="16" fill="#ff8fb3"/>
<rect x="64" y="144" width="16" height="16" fill="#2ed573"/>
<rect x="80" y="144" width="48" height="16" fill="#ff8fb3"/>
<rect x="128" y="144" width="16" height="16" fill="#ff4757"/>
<rect x="144" y="144" width="32" height="16" fill="#ff8fb3"/>
<rect x="176" y="144" width="16" height="16" fill="#ffd1e3"/>
<rect x="192" y="144" width="16" height="16" fill="#ff8fb3"/>
<rect x="208" y="144" width="16" height="16" fill="#4a2c14"/>
<rect x="32" y="160" width="16" height="16" fill="#4a2c14"/>
<rect x="48" y="160" width="160" height="16" fill="#c98a4b"/>
<rect x="208" y="160" width="16" height="16" fill="#4a2c14"/>
<rect x="32" y="176" width="16" height="16" fill="#4a2c14"/>
<rect x="48" y="176" width="16" height="16" fill="#8a5a2b"/>
<rect x="64" y="176" width="128" height="16" fill="#c98a4b"/>
<rect x="192" y="176" width="16" height="16" fill="#8a5a2b"/>
<rect x="208" y="176" width="16" height="16" fill="#4a2c14"/>
<rect x="32" y="192" width="16" height="16" fill="#4a2c14"/>
<rect x="48" y="192" width="16" height="16" fill="#8a5a2b"/>
<rect x="64" y="192" width="128" height="16" fill="#c98a4b"/>
<rect x="192" y="192" width="16" height="16" fill="#8a5a2b"/>
<rect x="208" y="192" width="16" height="16" fill="#4a2c14"/>
<rect x="16" y="208" width="16" height="16" fill="#4a2c14"/>
<rect x="32" y="208" width="192" height="16" fill="#f2f2f2"/>
<rect x="224" y="208" width="16" height="16" fill="#4a2c14"/>
<rect x="32" y="224" width="192" height="16" fill="#c7c7c7"/>
</svg>