<svg xmlns="http://www.w3.org/2000/svg" viewBox="0 0 256 256" shape-rendering="crispEdges">
<rect x="16" y="16" width="208" height="16" fill="#ffffff"/>
<rect x="224" y="16" width="16" height="16" fill="#404040"/>
<rect x="16" y="32" width="16" height="16" fill="#ffffff"/>
<rect x="32" y="32" width="192" height="16" fill="#000080"/>
<rect x="224" y="32" width="16" height="16" fill="#404040"/>
<rect x="16" y="48" width="16" height="16" fill="#ffffff"/>
<rect x="32" y="48" width="144" height="16" fill="#000080"/>
<rect x="176" y="48" width="16" height="16" fill="#dfdfdf"/>
<rect x="192" y="48" width="16" height="16" fill="#000080"/>
<rect x="208" y="48" width="16" height="16" fill="#dfdfdf"/>
<rect x="224" y="48" width="16" height="16" fill="#404040"/>
<rect x="16" y="64" width="16" height="16" fill="#ffffff"/>
<rect x="32" y="64" width="128" height="16" fill="#000080"/>
<rect x="160" y="64" width="64" height="16" fill="#1084d0"/>
<rect x="224" y="64" width="16" height="16" fill="#404040"/>
<rect x="16" y="80" width="16" height="16" fill="#ffffff"/>
<rect x="32" y="80" width="192" height="16" fill="#c0c0c0"/>
<rect x="224" y="80" width="16" height="16" fill="#404040"/>
<rect x="16" y="96" width="16" height="16" fill="#ffffff"/>
<rect x="32" y="96" width="192" height="16" fill="#c0c0c0"/>
<rect x="224" y="96" width="16" height="16" fill="#404040"/>
<rect x="16" y="112" width="16" height="16" fill="#ffffff"/>
<rect x="32" y="112" width="192" height="16" fill="#c0c0c0"/>
<rect x="224" y="112" width="16" height="16" fill="#404040"/>
<rect x="16" y="128" width="16" height="16" fill="#ffffff"/>
<rect x="32" y="128" width="192" height="16" fill="#c0c0c0"/>
<rect x="224" y="128" width="16" height="16" fill="#404040"/>
<rect x="16" y="144" width="16" height="16" fill="#ffffff"/>
<rect x="32" y="144" width="192" height="16" fill="#c0c0c0"/>
<rect x="224" y="144" width="16" height="16" fill="#404040"/>
<rect x="16" y="160" width="16" height="16" fill="#ffffff"/>
<rect x="32" y="160" width="192" height="16" fill="#c0c0c0"/>
<rect x="224" y="160" width="16" height="16" fill="#404040"/>
<rect x="16" y="176" width="16" height="16" fill="#ffffff"/>
<rect x="32" y="176" width="192" height="16" fill="#c0c0c0"/>
<rect x="224" y="176" width="16" height="16" fill="#404040"/>
<rect x="16" y="192" width="16" height="16" fill="#ffffff"/>
<rect x="32" y="192" width="192" height="16" fill="#c0c0c0"/>
<rect x="224" y="192" width="16" height="16" fill="#404040"/>
<rect x="16" y="208" width="16" height="16" fill="#ffffff"/>
<rect x="32" y="208" width="208" height="16" fill="#404040"/>
</svg>